<svg xmlns="http://www.w3.org/2000/svg" version="1.1" xmlns:xlink="http://www.w3.org/1999/xlink" xmlns:svgjs="http://svgjs.dev/svgjs" width="2000" height="494" viewBox="0 0 2000 494"><g transform="matrix(1,0,0,1,0.3398876404494331,1.3954020810913619)"><svg viewBox="0 0 356 88" data-background-color="#3e4f3c" preserveAspectRatio="xMidYMid meet" height="494" width="2000" xmlns="http://www.w3.org/2000/svg" xmlns:xlink="http://www.w3.org/1999/xlink"><g id="tight-bounds" transform="matrix(1,0,0,1,-0.06049999999999045,-0.24857365007295584)"><svg viewBox="0 0 356.12052000000006 88.49714730014594" height="88.49714730014594" width="356.12052000000006"><g><svg viewBox="0 0 356.12052000000006 88.49714730014594" height="88.49714730014594" width="356.12052000000006"><g><svg viewBox="0 0 356.12052000000006 88.49714730014594" height="88.49714730014594" width="356.12052000000006"><g><path d="M0 88.497v-88.497h356.121v88.497z" fill="#f3ecda" stroke="transparent" stroke-width="0" rx="0%" data-fill-palette-color="tertiary"></path><path d="M3.283 85.214v-81.931h349.554v81.931z" fill="#3e4f3c" stroke="transparent" stroke-width="0" rx="0%" data-fill-palette-color="quaternary"></path><path d="M9.85 78.647v-68.797h336.421v68.797z" fill="#f3ecda" stroke="transparent" stroke-width="0" data-fill-palette-color="tertiary"></path></g><g transform="matrix(1,0,0,1,19.69974,19.69974)" id="textblocktransform"><svg viewBox="0 0 316.7210400000001 49.097667300145936" height="49.097667300145936" width="316.7210400000001" id="textblock"><g><svg viewBox="0 0 316.7210400000001 49.097667300145936" height="49.097667300145936" width="316.7210400000001"><g transform="matrix(1,0,0,1,0,0)"><svg width="316.7210400000001" viewBox="1.7 -34 308.32 47.8" height="49.097667300145936" data-palette-color="#3e4f3c"><path d="M8.15 0.65L8.15 0.65Q5.15 0.65 3.43-1.35 1.7-3.35 1.7-6.8L1.7-6.8Q1.7-9.35 2.53-11.8 3.35-14.25 4.85-16.2 6.35-18.15 8.35-19.3 10.35-20.45 12.7-20.45L12.7-20.45Q14.2-20.45 15.38-20 16.55-19.55 17.45-18.85L17.45-18.85Q17.4-22.25 17.1-24.95 16.8-27.65 15.65-29.95L15.65-29.95Q15.45-30.35 15.33-30.68 15.2-31 15.2-31.3L15.2-31.3Q15.2-32 15.78-32.6 16.35-33.2 17.2-33.6 18.05-34 18.8-34L18.8-34Q20.15-34 20.83-32.83 21.5-31.65 21.7-29.63 21.9-27.6 21.9-25L21.9-25Q21.9-21.2 21.55-18.15 21.2-15.1 20.9-12.8L20.9-12.8Q20.7-11.3 20.55-10.2 20.4-9.1 20.4-8.4L20.4-8.4Q20.4-4.85 23.45-4.2L23.45-4.2Q24.25-4.05 24.25-3.15L24.25-3.15Q24.25-2.6 23.93-1.75 23.6-0.9 22.75-0.23 21.9 0.45 20.3 0.45L20.3 0.45Q18.15 0.45 17.4-1 16.65-2.45 16.65-5.4L16.65-5.4Q15.25-2.85 13.1-1.1 10.95 0.65 8.15 0.65ZM9.7-4.7L9.7-4.7Q11.1-4.7 12.5-5.6 13.9-6.5 15-8.05L15-8.05Q15.65-9 16.18-10.23 16.7-11.45 17.15-12.7L17.15-12.7Q14.6-15 11.5-15L11.5-15Q8.8-15 7.2-13.38 5.6-11.75 5.6-9.35L5.6-9.35Q5.6-7.3 6.8-6 8-4.7 9.7-4.7ZM33.7 0.65L33.7 0.65Q30.7 0.65 28.87-1.23 27.05-3.1 27.05-6.6L27.05-6.6Q27.05-9.1 28.02-11.58 29-14.05 30.85-16.05 32.7-18.05 35.3-19.25 37.9-20.45 41.15-20.45L41.15-20.45Q44.15-20.45 46.27-19.43 48.4-18.4 48.4-16.65L48.4-16.65Q48.4-16.2 48.3-15.48 48.2-14.75 48.05-14.3L48.05-14.3Q47.9-13.9 47.62-13.58 47.35-13.25 46.9-13.25L46.9-13.25Q46.7-13.25 46.15-13.4L46.15-13.4Q45.95-12.35 45.85-11.35 45.75-10.35 45.75-9.35L45.75-9.35Q45.75-7.45 46.32-5.98 46.9-4.5 48.6-4.15L48.6-4.15Q49.05-4.05 49.32-3.85 49.6-3.65 49.6-3L49.6-3Q49.6-2.45 49.32-1.6 49.05-0.75 48.27-0.08 47.5 0.6 46.05 0.6L46.05 0.6Q44.1 0.6 43.05-0.83 42-2.25 42-4.9L42-4.9Q40.65-2.45 38.57-0.9 36.5 0.65 33.7 0.65ZM35.3-4.55L35.3-4.55Q37.3-4.55 38.82-5.8 40.35-7.05 41.2-8.95L41.2-8.95Q41.75-10.15 42.05-11.58 42.35-13 42.45-14.4L42.45-14.4Q41.6-14.8 40.5-15.05 39.4-15.3 38.2-15.3L38.2-15.3Q35.15-15.3 33.17-13.5 31.2-11.7 31.2-9L31.2-9Q31.2-7 32.3-5.78 33.4-4.55 35.3-4.55ZM59.3 0.65L59.3 0.65Q57.45 0.65 55.84 0.1 54.25-0.45 53.25-1.45 52.25-2.45 52.25-3.85L52.25-3.85Q52.25-4.6 52.62-5.28 53-5.95 53.84-5.95L53.84-5.95Q54.3-5.95 54.8-5.7L54.8-5.7Q55.7-5.2 57.09-4.78 58.5-4.35 60.05-4.35L60.05-4.35Q61.8-4.35 63.15-4.85 64.5-5.35 64.5-6.25L64.5-6.25Q64.5-6.95 63.47-7.25 62.45-7.55 60.05-7.9L60.05-7.9Q58.4-8.2 56.84-8.6 55.3-9 54.3-9.98 53.3-10.95 53.3-12.85L53.3-12.85Q53.3-14.7 54.32-16.43 55.34-18.15 57.4-19.3 59.45-20.45 62.4-20.45L62.4-20.45Q63.95-20.45 65.4-20.1 66.84-19.75 67.8-19.05 68.75-18.35 68.75-17.3L68.75-17.3Q68.75-16.4 68.12-15.65 67.5-14.9 66.67-14.43 65.84-13.95 65.3-13.95L65.3-13.95Q64.9-13.95 64.34-14.5L64.34-14.5Q63.5-15.2 62.47-15.48 61.45-15.75 60.45-15.75L60.45-15.75Q58.95-15.75 58.02-15.3 57.09-14.85 57.09-14.15L57.09-14.15Q57.09-13.5 57.87-13.1 58.65-12.7 59.8-12.53 60.95-12.35 62-12.2L62-12.2Q64.9-11.8 66.59-10.83 68.3-9.85 68.3-7.4L68.3-7.4Q68.3-5.5 67.22-3.63 66.15-1.75 64.12-0.55 62.09 0.65 59.3 0.65ZM80.49 0.65L80.49 0.65Q77.04 0.65 74.97-1.23 72.89-3.1 72.89-6.75L72.89-6.75Q72.89-8.45 73.37-10.05 73.84-11.65 74.64-13.05L74.64-13.05Q73.84-12.55 73.44-12.55L73.44-12.55Q72.84-12.55 72.62-13.23 72.39-13.9 72.39-14.55L72.39-14.55Q72.39-15.7 72.87-16.38 73.34-17.05 73.79-17.4L73.79-17.4Q74.84-18.3 77.09-19.38 79.34-20.45 82.49-20.45L82.49-20.45Q86.79-20.45 89.17-18.05 91.54-15.65 91.54-11.35L91.54-11.35Q91.54-8 90.14-5.28 88.74-2.55 86.27-0.95 83.79 0.65 80.49 0.65ZM82.04-4.45L82.04-4.45Q84.54-4.45 86.27-6.03 87.99-7.6 87.99-10.2L87.99-10.2Q87.99-12.9 86.24-14.05 84.49-15.2 82.19-15.2L82.19-15.2Q81.14-15.2 80.29-15 79.44-14.8 78.69-14.5L78.69-14.5Q77.99-13.5 77.44-12.25 76.89-11 76.89-9.5L76.89-9.5Q76.89-7 78.39-5.73 79.89-4.45 82.04-4.45ZM98.19 0.55L98.19 0.55Q96.39 0.55 96.59-0.65L96.59-0.65Q97.14-2.8 97.52-5.03 97.89-7.25 97.89-9.3L97.89-9.3Q97.89-11.95 97.57-13.18 97.24-14.4 96.69-14.88 96.14-15.35 95.34-15.6L95.34-15.6Q94.99-15.75 94.72-16 94.44-16.25 94.44-16.7L94.44-16.7Q94.44-17.4 94.99-18.25 95.54-19.1 96.57-19.73 97.59-20.35 98.89-20.35L98.89-20.35Q100.59-20.35 101.24-19.18 101.89-18 101.89-16.1L101.89-16.1Q101.89-14.85 101.64-13.3 101.39-11.75 101.14-10.5L101.14-10.5 101.24-10.45Q102.04-13.1 103.22-15.35 104.39-17.6 106.07-19 107.74-20.4 109.94-20.4L109.94-20.4Q112.19-20.4 113.49-18.88 114.79-17.35 114.79-14.4L114.79-14.4 114.79-13.3Q116.24-16.35 118.32-18.4 120.39-20.45 123.34-20.45L123.34-20.45Q125.74-20.45 127.09-18.85 128.44-17.25 128.44-14.85L128.44-14.85Q128.44-13.9 128.24-13.03 128.04-12.15 127.79-11.3L127.79-11.3Q127.59-10.5 127.39-9.65 127.19-8.8 127.19-7.95L127.19-7.95Q127.19-4.95 129.74-4.05L129.74-4.05Q130.09-3.9 130.29-3.73 130.49-3.55 130.49-3.1L130.49-3.1Q130.49-2.65 130.22-1.8 129.94-0.95 129.14-0.23 128.34 0.5 126.84 0.5L126.84 0.5Q124.89 0.5 123.84-0.93 122.79-2.35 122.79-4.55L122.79-4.55Q122.79-5.65 122.99-6.85 123.19-8.05 123.49-9.15L123.49-9.15Q123.74-10.15 123.92-11.05 124.09-11.95 124.09-12.6L124.09-12.6Q124.09-13.8 123.52-14.35 122.94-14.9 121.99-14.9L121.99-14.9Q120.39-14.9 119.12-13.9 117.84-12.9 116.87-11.3 115.89-9.7 115.19-7.8L115.19-7.8Q115.24-7.35 115.27-6.63 115.29-5.9 115.29-5.35L115.29-5.35Q115.29-4.4 115.17-3.35 115.04-2.3 114.69-1.6L114.69-1.6Q114.29-0.65 113.52-0.05 112.74 0.55 111.44 0.55L111.44 0.55Q110.89 0.55 110.39 0.33 109.89 0.1 109.89-0.4L109.89-0.4Q109.89-0.6 110.19-2.18 110.49-3.75 110.79-6.05 111.09-8.35 111.09-10.55L111.09-10.55Q111.09-12.95 110.59-13.88 110.09-14.8 109.09-14.8L109.09-14.8Q107.84-14.8 106.72-13.75 105.59-12.7 104.67-11.05 103.74-9.4 103.07-7.6 102.39-5.8 101.99-4.25L101.99-4.25 101.99-3.7Q101.99-1.85 100.97-0.65 99.94 0.55 98.19 0.55ZM150.34 13.8L150.34 13.8Q148.84 13.8 147.99 12.98 147.14 12.15 147.14 10L147.14 10Q147.14 8.55 147.46 6.35 147.79 4.15 148.24 1.7L148.24 1.7Q148.59-0.25 148.91-2.4 149.24-4.55 149.46-6.63 149.69-8.7 149.69-10.35L149.69-10.35Q149.69-12.25 149.26-13.65 148.84-15.05 147.54-15.45L147.54-15.45Q147.04-15.65 146.64-15.9 146.24-16.15 146.24-16.7L146.24-16.7Q146.24-17.4 146.79-18.25 147.34-19.1 148.36-19.73 149.39-20.35 150.69-20.35L150.69-20.35Q152.39-20.35 153.04-19.18 153.69-18 153.69-16.1L153.69-16.1Q153.69-15.55 153.64-14.98 153.59-14.4 153.49-13.8L153.49-13.8Q154.94-16.6 157.31-18.53 159.69-20.45 162.69-20.45L162.69-20.45Q165.69-20.45 167.41-18.43 169.14-16.4 169.14-12.95L169.14-12.95Q169.14-10.4 168.34-7.98 167.54-5.55 166.09-3.6 164.64-1.65 162.61-0.5 160.59 0.65 158.09 0.65L158.09 0.65Q156.29 0.65 154.94 0.03 153.59-0.6 152.59-1.6L152.59-1.6Q152.39-0.3 152.21 1.55 152.04 3.4 152.04 5L152.04 5Q152.04 6.85 152.46 7.9 152.89 8.95 154.14 9.5L154.14 9.5Q154.69 9.75 154.69 10.3L154.69 10.3Q154.69 10.7 154.29 11.55 153.89 12.4 152.96 13.1 152.04 13.8 150.34 13.8ZM159.24-4.75L159.24-4.75Q162.09-4.75 163.64-6.55 165.19-8.35 165.19-10.7L165.19-10.7Q165.19-12.75 164.09-13.88 162.99-15 161.14-15L161.14-15Q159.24-15 157.79-13.88 156.34-12.75 155.31-10.95 154.29-9.15 153.64-7.1L153.64-7.1Q156.14-4.75 159.24-4.75ZM180.88 0.65L180.88 0.65Q177.43 0.65 175.36-1.23 173.28-3.1 173.28-6.75L173.28-6.75Q173.28-8.45 173.76-10.05 174.23-11.65 175.03-13.05L175.03-13.05Q174.23-12.55 173.83-12.55L173.83-12.55Q173.23-12.55 173.01-13.23 172.78-13.9 172.78-14.55L172.78-14.55Q172.78-15.7 173.26-16.38 173.73-17.05 174.18-17.4L174.18-17.4Q175.23-18.3 177.48-19.38 179.73-20.45 182.88-20.45L182.88-20.45Q187.18-20.45 189.56-18.05 191.93-15.65 191.93-11.35L191.93-11.35Q191.93-8 190.53-5.28 189.13-2.55 186.66-0.95 184.18 0.65 180.88 0.65ZM182.43-4.45L182.43-4.45Q184.93-4.45 186.66-6.03 188.38-7.6 188.38-10.2L188.38-10.2Q188.38-12.9 186.63-14.05 184.88-15.2 182.58-15.2L182.58-15.2Q181.53-15.2 180.68-15 179.83-14.8 179.08-14.5L179.08-14.5Q178.38-13.5 177.83-12.25 177.28-11 177.28-9.5L177.28-9.5Q177.28-7 178.78-5.73 180.28-4.45 182.43-4.45ZM198.78 0.55L198.78 0.55Q197.98 0.55 197.51 0.28 197.03 0 197.18-0.65L197.18-0.65Q197.73-2.8 198.11-5.03 198.48-7.25 198.48-9.3L198.48-9.3Q198.48-11.95 198.16-13.18 197.83-14.4 197.28-14.88 196.73-15.35 195.93-15.6L195.93-15.6Q195.58-15.75 195.31-16 195.03-16.25 195.03-16.7L195.03-16.7Q195.03-17.4 195.58-18.25 196.13-19.1 197.13-19.73 198.13-20.35 199.43-20.35L199.43-20.35Q201.13-20.35 201.81-19.18 202.48-18 202.48-16.1L202.48-16.1Q203.38-18.1 204.71-19.28 206.03-20.45 208.03-20.45L208.03-20.45Q209.38-20.45 210.28-19.85 211.18-19.25 211.18-17.9L211.18-17.9Q211.18-16.55 210.31-15.38 209.43-14.2 208.53-14.2L208.53-14.2Q208.38-14.2 208.18-14.25 207.98-14.3 207.83-14.5L207.83-14.5Q207.18-15.3 206.23-15.3L206.23-15.3Q204.78-15.3 203.68-13.4 202.58-11.5 202.48-8.15L202.48-8.15Q202.53-6.9 202.56-5.6 202.58-4.3 202.58-3.7L202.58-3.7Q202.58-1.85 201.56-0.65 200.53 0.55 198.78 0.55ZM219.73 0.65L219.73 0.65Q216.68 0.65 215.35-1.38 214.03-3.4 214.03-6.6L214.03-6.6Q214.03-7.75 214.15-8.85 214.28-9.95 214.43-11.05L214.43-11.05Q214.58-12.15 214.73-13.2 214.88-14.25 214.98-15.2L214.98-15.2Q213.93-14.9 212.88-14.9L212.88-14.9Q211.78-14.9 211.78-15.8L211.78-15.8Q211.78-16.75 212.63-18.13 213.48-19.5 214.75-20.85 216.03-22.2 217.3-23.13 218.58-24.05 219.48-24.05L219.48-24.05Q220.58-24.05 220.58-22.15L220.58-22.15Q220.58-21.65 220.5-21.13 220.43-20.6 220.33-20.05L220.33-20.05Q221.28-20.25 222.25-20.4 223.23-20.55 224.13-20.55L224.13-20.55Q225.28-20.55 225.9-20.15 226.53-19.75 226.53-18.6L226.53-18.6Q226.53-17.4 225.95-16.2 225.38-15 224.68-15L224.68-15Q224.53-15 224.18-15.05 223.83-15.1 223.33-15.2L223.33-15.2Q222.68-15.35 221.68-15.5 220.68-15.65 219.28-15.65L219.28-15.65Q218.93-14.1 218.65-12.48 218.38-10.85 218.38-9.55L218.38-9.55Q218.38-6.65 219.83-5.6 221.28-4.55 224.03-4.55L224.03-4.55Q224.88-4.55 225.23-4.28 225.58-4 225.58-3.3L225.58-3.3Q225.58-1.65 223.88-0.5 222.18 0.65 219.73 0.65ZM232.13 9.6L232.13 9.6Q231.18 9.6 230.68 9.13 230.18 8.65 230.23 7.4L230.23 7.4Q230.23 6.65 230.35 4.73 230.48 2.8 230.7 0.18 230.93-2.45 231.2-5.3 231.48-8.15 231.73-10.8 231.98-13.45 232.18-15.35L232.18-15.35Q231.68-15.3 231.23-15.28 230.78-15.25 230.33-15.15L230.33-15.15Q229.83-15.05 229.58-15.05L229.58-15.05Q228.98-15.05 228.78-15.78 228.58-16.5 228.58-17.15L228.58-17.15Q228.58-17.9 228.8-18.4 229.03-18.9 229.78-19.2L229.78-19.2Q230.23-19.4 230.95-19.55 231.68-19.7 232.48-19.8L232.48-19.8Q232.73-22.75 233.25-25.4 233.78-28.05 234.88-29.9L234.88-29.9Q236.03-31.8 238-32.9 239.98-34 242.03-34L242.03-34Q243.53-34 244.85-33.43 246.18-32.85 247-31.83 247.83-30.8 247.83-29.5L247.83-29.5Q247.83-28.55 247.35-27.95 246.88-27.35 246.28-27.35L246.28-27.35Q246.03-27.35 245.73-27.45 245.43-27.55 245.13-27.65L245.13-27.65Q244.58-27.9 243.75-28.08 242.93-28.25 241.98-28.25L241.98-28.25Q240.03-28.25 238.9-27.2 237.78-26.15 237.2-24.33 236.63-22.5 236.28-20.1L236.28-20.1Q237.33-20.2 238.53-20.3 239.73-20.4 240.48-20.4L240.48-20.4Q241.68-20.4 242.35-20.03 243.03-19.65 243.03-18.6L243.03-18.6Q243.03-17.95 242.8-17.07 242.58-16.2 242.13-15.53 241.68-14.85 241.08-14.85L241.08-14.85Q240.83-14.85 240.23-15L240.23-15Q239.58-15.1 238.53-15.25 237.48-15.4 235.88-15.45L235.88-15.45Q235.68-13.3 235.55-10.68 235.43-8.05 235.43-5.15L235.43-5.15Q235.43-2 235.63 0.3 235.83 2.6 236.03 4.05L236.03 4.05Q236.13 4.7 236.18 5.2 236.23 5.7 236.23 6L236.23 6Q236.23 7.45 235.53 8.22 234.83 9 233.88 9.3 232.93 9.6 232.13 9.6ZM252.37 0.65L252.37 0.65Q248.92 0.65 246.85-1.23 244.77-3.1 244.77-6.75L244.77-6.75Q244.77-8.45 245.25-10.05 245.72-11.65 246.52-13.05L246.52-13.05Q245.72-12.55 245.32-12.55L245.32-12.55Q244.72-12.55 244.5-13.23 244.27-13.9 244.27-14.55L244.27-14.55Q244.27-15.7 244.75-16.38 245.22-17.05 245.67-17.4L245.67-17.4Q246.72-18.3 248.97-19.38 251.22-20.45 254.37-20.45L254.37-20.45Q258.67-20.45 261.05-18.05 263.42-15.65 263.42-11.35L263.42-11.35Q263.42-8 262.02-5.28 260.62-2.55 258.15-0.95 255.67 0.65 252.37 0.65ZM253.92-4.45L253.92-4.45Q256.42-4.45 258.15-6.03 259.87-7.6 259.87-10.2L259.87-10.2Q259.87-12.9 258.12-14.05 256.37-15.2 254.07-15.2L254.07-15.2Q253.02-15.2 252.17-15 251.32-14.8 250.57-14.5L250.57-14.5Q249.87-13.5 249.32-12.25 248.77-11 248.77-9.5L248.77-9.5Q248.77-7 250.27-5.73 251.77-4.45 253.92-4.45ZM270.97 0.5L270.97 0.5Q269.52 0.5 268.82-0.3 268.12-1.1 268.12-3.1L268.12-3.1Q268.12-4.05 268.27-5.55 268.42-7.05 268.62-8.8L268.62-8.8Q268.92-10.95 269.15-13.3 269.37-15.65 269.37-17.8L269.37-17.8Q269.37-20.85 269.1-24.13 268.82-27.4 267.57-29.85L267.57-29.85Q267.12-30.85 267.12-31.3L267.12-31.3Q267.12-31.95 267.7-32.55 268.27-33.15 269.12-33.58 269.97-34 270.77-34L270.77-34Q272.07-34 272.72-32.83 273.37-31.65 273.57-29.63 273.77-27.6 273.77-25L273.77-25Q273.77-21.05 273.45-18.15 273.12-15.25 272.82-13.05L272.82-13.05Q272.62-11.6 272.45-10.3 272.27-9 272.27-7.95L272.27-7.95Q272.27-6.2 272.85-5.43 273.42-4.65 274.72-3.9L274.72-3.9Q275.07-3.7 275.25-3.53 275.42-3.35 275.42-3L275.42-3Q275.42-2.6 275.02-1.75 274.62-0.9 273.65-0.2 272.67 0.5 270.97 0.5ZM282.87-24.85L282.87-24.85Q281.47-24.9 280.62-25.7 279.77-26.5 279.77-27.95L279.77-27.95Q279.82-29.5 280.82-30.48 281.82-31.45 283.37-31.4L283.37-31.4Q284.82-31.35 285.64-30.55 286.47-29.75 286.42-28.3L286.42-28.3Q286.37-26.8 285.42-25.83 284.47-24.85 282.87-24.85ZM282.92 0.5L282.92 0.5Q281.42 0.5 280.57-0.33 279.72-1.15 279.72-3.15L279.72-3.15Q279.72-4.3 279.94-5.4 280.17-6.5 280.47-7.55L280.47-7.55Q280.82-8.65 281.04-9.8 281.27-10.95 281.27-12.25L281.27-12.25Q281.27-13.15 281.02-13.98 280.77-14.8 279.92-15.2L279.92-15.2Q279.27-15.55 278.79-15.93 278.32-16.3 278.32-16.9L278.32-16.9Q278.32-17.6 278.97-18.4 279.62-19.2 280.69-19.78 281.77-20.35 282.92-20.35L282.92-20.35Q284.17-20.35 284.74-19.7 285.32-19.05 285.52-18.05 285.72-17.05 285.72-16L285.72-16Q285.72-14.4 285.47-12.88 285.22-11.35 284.97-10.05L284.97-10.05Q284.77-9.1 284.67-8.3 284.57-7.5 284.57-6.8L284.57-6.8Q284.57-5.55 285.17-4.93 285.77-4.3 286.87-3.75L286.87-3.75Q287.32-3.5 287.32-3L287.32-3Q287.32-2.6 286.92-1.75 286.52-0.9 285.54-0.2 284.57 0.5 282.92 0.5ZM298.97 0.65L298.97 0.65Q295.52 0.65 293.44-1.23 291.37-3.1 291.37-6.75L291.37-6.75Q291.37-8.45 291.84-10.05 292.31-11.65 293.12-13.05L293.12-13.05Q292.31-12.55 291.92-12.55L291.92-12.55Q291.31-12.55 291.09-13.23 290.87-13.9 290.87-14.55L290.87-14.55Q290.87-15.7 291.34-16.38 291.81-17.05 292.27-17.4L292.27-17.4Q293.31-18.3 295.56-19.38 297.81-20.45 300.97-20.45L300.97-20.45Q305.27-20.45 307.64-18.05 310.02-15.65 310.02-11.35L310.02-11.35Q310.02-8 308.62-5.28 307.22-2.55 304.74-0.95 302.27 0.65 298.97 0.65ZM300.52-4.45L300.52-4.45Q303.02-4.45 304.74-6.03 306.47-7.6 306.47-10.2L306.47-10.2Q306.47-12.9 304.72-14.05 302.97-15.2 300.67-15.2L300.67-15.2Q299.62-15.2 298.77-15 297.92-14.8 297.17-14.5L297.17-14.5Q296.47-13.5 295.92-12.25 295.37-11 295.37-9.5L295.37-9.5Q295.37-7 296.87-5.73 298.37-4.45 300.52-4.45Z" opacity="1" transform="matrix(1,0,0,1,0,0)" fill="#3e4f3c" class="wordmark-text-0" data-fill-palette-color="quaternary" id="text-0"></path></svg></g></svg></g></svg></g></svg></g><g></g></svg></g><defs></defs></svg><rect width="356.12052000000006" height="88.49714730014594" fill="none" stroke="none" visibility="hidden"></rect></g></svg></g></svg>