<svg xmlns="http://www.w3.org/2000/svg" version="1.1" xmlns:xlink="http://www.w3.org/1999/xlink" xmlns:svgjs="http://svgjs.dev/svgjs" width="2000" height="429" viewBox="0 0 2000 429"><g transform="matrix(1,0,0,1,-1.2121212121212466,-1.709438701117108)"><svg viewBox="0 0 396 85" data-background-color="#f9f9f9" preserveAspectRatio="xMidYMid meet" height="429" width="2000" xmlns="http://www.w3.org/2000/svg" xmlns:xlink="http://www.w3.org/1999/xlink"><g id="tight-bounds" transform="matrix(1,0,0,1,0.2400000000000091,0.33869997574581134)"><svg viewBox="0 0 395.52 84.32260004850836" height="84.32260004850836" width="395.52"><g><svg viewBox="0 0 395.52 84.32260004850836" height="84.32260004850836" width="395.52"><g><svg viewBox="0 0 395.52 84.32260004850836" height="84.32260004850836" width="395.52"><g id="textblocktransform"><svg viewBox="0 0 395.52 84.32260004850836" height="84.32260004850836" width="395.52" id="textblock"><g><svg viewBox="0 0 395.52 84.32260004850836" height="84.32260004850836" width="395.52"><g transform="matrix(1,0,0,1,0,0)"><svg width="395.52" viewBox="2.25 -37.25 206.14 43.95" height="84.32260004850836" data-palette-color="#ffce0a"><path d="M37.5-2.1L31 3.3Q29.45 4.6 27.05 5.28 24.65 5.95 21.4 5.95L21.4 5.95 4.55 5.95Q3.35 5.95 2.8 5.4 2.25 4.85 2.25 3.65L2.25 3.65 2.25-28.75Q2.25-29.4 2.43-29.85 2.6-30.3 2.95-30.6L2.95-30.6 9.4-36.05Q9.65-36.25 10.08-36.38 10.5-36.5 11-36.5L11-36.5 27.85-36.5Q34.4-36.5 37.52-33.85 40.65-31.2 40.65-25.8L40.65-25.8 40.65-10.2Q40.65-7.5 39.85-5.48 39.05-3.45 37.5-2.1L37.5-2.1ZM11 0L27.85 0Q34.1 0 37.13-2.5 40.15-5 40.15-10.2L40.15-10.2 40.15-25.8Q40.15-31 37.13-33.5 34.1-36 27.85-36L27.85-36 11-36Q10.05-36 9.63-35.58 9.2-35.15 9.2-34.2L9.2-34.2 9.2-1.8Q9.2-0.85 9.63-0.43 10.05 0 11 0L11 0ZM26.75-4.5L14.65-4.5 14.65-31.5 26.75-31.5Q29.3-31.5 30.88-30.95 32.45-30.4 33.3-29.48 34.15-28.55 34.45-27.28 34.75-26 34.75-24.55L34.75-24.55 34.75-11.3Q34.75-9.85 34.48-8.6 34.2-7.35 33.35-6.45 32.5-5.55 30.9-5.03 29.3-4.5 26.75-4.5L26.75-4.5ZM26.75-31L26.75-31 15.15-31 15.15-5 26.75-5Q29.15-5 30.63-5.48 32.1-5.95 32.9-6.78 33.7-7.6 33.98-8.78 34.25-9.95 34.25-11.3L34.25-11.3 34.25-24.55Q34.25-25.9 33.95-27.1 33.65-28.3 32.85-29.15 32.05-30 30.58-30.5 29.1-31 26.75-31ZM20.55-9.45L20.55-26.45 26.5-26.45Q27.7-26.45 28.28-25.88 28.85-25.3 28.85-24.05L28.85-24.05 28.85-11.9Q28.85-10.65 28.28-10.05 27.7-9.45 26.5-9.45L26.5-9.45 20.55-9.45ZM21.9-9.95L21.9-18.6Q21.9-19.25 21.7-19.7 21.5-20.15 21.05-20.35L21.05-20.35 21.05-9.95 21.9-9.95ZM56.55-15.15L56.55-15.15 56.55-13.6 76.05-13.6 76.05-15.15Q76.05-16.5 75.82-17.65 75.6-18.8 75.25-19.8L75.25-19.8 71.8-27.95Q71.25-29.25 70.65-30.13 70.05-31 68.65-31L68.65-31 63.75-31Q62.25-31 61.65-30.13 61.05-29.25 60.55-28L60.55-28 57.35-19.8Q57-18.8 56.77-17.65 56.55-16.5 56.55-15.15ZM62.2-17.9L64.55-25.5Q64.75-25.95 64.97-26.15 65.2-26.35 65.5-26.35L65.5-26.35 66.75-26.35Q67.05-26.35 67.27-26.15 67.5-25.95 67.7-25.5L67.7-25.5 70.05-17.9 62.2-17.9ZM76.55-4.5L76.05-4.5 76.05-13.1 56.55-13.1 56.55-4.5 56.05-4.5 56.05-15.15Q56.05-16.55 56.27-17.73 56.5-18.9 56.9-20L56.9-20 60.1-28.2Q60.65-29.6 61.35-30.55 62.05-31.5 63.75-31.5L63.75-31.5 68.65-31.5Q70.3-31.5 70.97-30.55 71.65-29.6 72.25-28.15L72.25-28.15 75.7-20Q76.1-18.9 76.32-17.73 76.55-16.55 76.55-15.15L76.55-15.15 76.55-4.5ZM61.7-1.8L61.7-1.8 61.7-8.8 70.55-8.8 70.55-1.8Q70.55-0.85 71.02-0.43 71.5 0 72.5 0L72.5 0 80.05 0Q81 0 81.42-0.43 81.85-0.85 81.85-1.8L81.85-1.8 81.85-15Q81.85-16.5 81.37-18.45 80.9-20.4 79.9-23L79.9-23 75.55-34.35Q75.25-35.2 74.62-35.6 74-36 73.05-36L73.05-36 59.6-36Q58.6-36 57.97-35.6 57.35-35.2 57.05-34.35L57.05-34.35 52.7-23Q51.7-20.4 51.22-18.45 50.75-16.5 50.75-15L50.75-15 50.75-1.8Q50.75-0.85 51.17-0.43 51.6 0 52.55 0L52.55 0 59.9 0Q60.85 0 61.27-0.43 61.7-0.85 61.7-1.8ZM61.5 0.05L55 5.45Q54.8 5.65 54.37 5.8 53.95 5.95 53.45 5.95L53.45 5.95 46.1 5.95Q44.9 5.95 44.35 5.4 43.8 4.85 43.8 3.65L43.8 3.65 43.8-9.55Q43.8-11.1 44.27-13.08 44.75-15.05 45.8-17.75L45.8-17.75 50.1-29.05Q50.25-29.5 50.47-29.83 50.7-30.15 50.95-30.4L50.95-30.4 51-30.45 57.4-35.8Q57.8-36.15 58.35-36.33 58.9-36.5 59.6-36.5L59.6-36.5 73.05-36.5Q74.2-36.5 74.92-36.02 75.65-35.55 76-34.55L76-34.55 80.35-23.2Q81.4-20.5 81.87-18.53 82.35-16.55 82.35-15L82.35-15 82.35-1.8Q82.35-1.15 82.17-0.7 82-0.25 81.65 0.05L81.65 0.05 75.15 5.45Q74.95 5.65 74.52 5.8 74.1 5.95 73.6 5.95L73.6 5.95 66.05 5.95Q64.8 5.95 64.2 5.38 63.6 4.8 63.6 3.65L63.6 3.65 63.6-2.85 62.2-2.85 62.2-1.8Q62.2-1.15 62.02-0.7 61.85-0.25 61.5 0.05L61.5 0.05ZM103.25 5.95L87.45 5.95Q86.25 5.95 85.7 5.4 85.15 4.85 85.15 3.65L85.15 3.65 85.15-2.2Q85.15-2.85 85.32-3.3 85.5-3.75 85.85-4.05L85.85-4.05 90.85-8.25Q88.2-9.05 86.67-10.98 85.15-12.9 85.15-16.5L85.15-16.5 85.15-21.75Q85.15-24 85.9-25.75 86.65-27.5 88.05-28.7L88.05-28.7 94.55-34.15Q95.9-35.25 97.9-35.88 99.9-36.5 102.45-36.5L102.45-36.5 116.45-36.5Q117.65-36.5 118.2-35.95 118.75-35.4 118.75-34.2L118.75-34.2 118.75-28.25Q118.75-27.6 118.57-27.15 118.4-26.7 118.05-26.4L118.05-26.4 113.55-22.65Q116.7-21.95 118.62-20.03 120.55-18.1 120.55-14.05L120.55-14.05 120.55-8.8Q120.55-6.55 119.8-4.8 119.05-3.05 117.6-1.85L117.6-1.85 111.15 3.55Q109.75 4.7 107.75 5.33 105.75 5.95 103.25 5.95L103.25 5.95ZM93.9 0L109.7 0Q114.5 0 117.27-2.27 120.05-4.55 120.05-8.8L120.05-8.8 120.05-14.05Q120.05-18.25 117.9-20.05 115.75-21.85 112.25-22.35L112.25-22.35 104.8-23.35Q104.15-23.4 103.8-23.85 103.45-24.3 103.45-24.95L103.45-24.95Q103.45-25.6 103.8-26.03 104.15-26.45 104.8-26.45L104.8-26.45 116.45-26.45Q117.4-26.45 117.82-26.88 118.25-27.3 118.25-28.25L118.25-28.25 118.25-34.2Q118.25-35.15 117.82-35.58 117.4-36 116.45-36L116.45-36 102.45-36Q97.6-36 94.85-33.73 92.1-31.45 92.1-27.2L92.1-27.2 92.1-21.95Q92.1-17.75 94.22-15.95 96.35-14.15 99.85-13.65L99.85-13.65 107.35-12.6Q108-12.55 108.32-12.15 108.65-11.75 108.65-10.9L108.65-10.9Q108.65-10.3 108.32-9.88 108-9.45 107.35-9.45L107.35-9.45 93.9-9.45Q92.95-9.45 92.52-9.03 92.1-8.6 92.1-7.65L92.1-7.65 92.1-1.8Q92.1-0.85 92.52-0.43 92.95 0 93.9 0L93.9 0ZM102.65-31.5L113.75-31.5 113.75-31 102.65-31Q100.55-31 99.3-29.85 98.05-28.7 98.05-26.95L98.05-26.95 98.05-22.85Q98.05-21.1 98.75-20.4 99.45-19.7 100.6-19.5L100.6-19.5 111.15-17.35Q112.65-17.05 113.62-16.05 114.6-15.05 114.6-12.45L114.6-12.45 114.6-9.55Q114.6-7.35 113.1-5.93 111.6-4.5 109.05-4.5L109.05-4.5 96.6-4.5 96.6-5 109.05-5Q111.35-5 112.72-6.28 114.1-7.55 114.1-9.55L114.1-9.55 114.1-12.45Q114.1-14.8 113.27-15.68 112.45-16.55 111.05-16.85L111.05-16.85 100.5-19Q99.2-19.25 98.37-20.03 97.55-20.8 97.55-22.85L97.55-22.85 97.55-26.95Q97.55-28.95 98.95-30.23 100.35-31.5 102.65-31.5L102.65-31.5ZM158.49-1.85L152.04 3.55Q150.29 5.05 147.14 5.88 143.99 6.7 139.04 6.7L139.04 6.7Q134.14 6.7 131.02 5.68 127.89 4.65 126.12 2.95 124.34 1.25 123.67-0.95 122.99-3.15 122.99-5.5L122.99-5.5 122.99-21.05Q122.99-23.35 123.64-25.33 124.29-27.3 125.99-28.7L125.99-28.7 132.49-34.1Q134.24-35.6 137.37-36.43 140.49-37.25 145.49-37.25L145.49-37.25Q150.39-37.25 153.52-36.45 156.64-35.65 158.42-34.23 160.19-32.8 160.84-30.83 161.49-28.85 161.49-26.5L161.49-26.5 161.49-9.45Q161.49-7.15 160.84-5.2 160.19-3.25 158.49-1.85L158.49-1.85ZM160.99-9.45L160.99-9.45 160.99-26.5Q160.99-28.8 160.32-30.68 159.64-32.55 157.92-33.9 156.19-35.25 153.17-36 150.14-36.75 145.49-36.75L145.49-36.75Q140.84-36.75 137.79-36 134.74-35.25 133.02-33.9 131.29-32.55 130.62-30.68 129.94-28.8 129.94-26.5L129.94-26.5 129.94-9.45Q129.94-7.15 130.62-5.28 131.29-3.4 133.02-2.08 134.74-0.75 137.79 0 140.84 0.75 145.49 0.75L145.49 0.75Q150.14 0.75 153.17 0 156.19-0.75 157.92-2.08 159.64-3.4 160.32-5.28 160.99-7.15 160.99-9.45ZM155.54-25.35L155.54-10.6Q155.54-7.6 153.39-5.73 151.24-3.85 145.39-3.85L145.39-3.85Q139.54-3.85 137.44-5.73 135.34-7.6 135.34-10.6L135.34-10.6 135.34-25.35Q135.34-28.35 137.44-30.23 139.54-32.1 145.39-32.1L145.39-32.1Q151.24-32.1 153.39-30.23 155.54-28.35 155.54-25.35L155.54-25.35ZM135.84-25.35L135.84-10.6Q135.84-7.8 137.84-6.08 139.84-4.35 145.39-4.35L145.39-4.35Q150.94-4.35 152.99-6.08 155.04-7.8 155.04-10.6L155.04-10.6 155.04-25.35Q155.04-28.15 152.99-29.88 150.94-31.6 145.39-31.6L145.39-31.6Q139.84-31.6 137.84-29.88 135.84-28.15 135.84-25.35L135.84-25.35ZM141.29-11.25L141.29-11.25 141.29-24.7Q141.29-25.65 142.04-26.33 142.79-27 145.49-27L145.49-27Q148.19-27 148.94-26.33 149.69-25.65 149.69-24.7L149.69-24.7 149.69-11.25Q149.69-10.25 148.94-9.58 148.19-8.9 145.49-8.9L145.49-8.9Q142.79-8.9 142.04-9.58 141.29-10.25 141.29-11.25ZM141.79-20.7L141.79-11.25Q141.79-10.75 141.99-10.38 142.19-10 142.74-9.75L142.74-9.75 142.74-19.25Q142.74-19.75 142.54-20.13 142.34-20.5 141.79-20.7L141.79-20.7ZM189.94-19.25L189.94-19.25Q190.84-19.25 191.24-19.65 191.64-20.05 192.49-21.35L192.49-21.35 198.59-30.65Q198.89-31.15 199.27-31.33 199.64-31.5 200.04-31.5L200.04-31.5 200.89-31.5Q201.59-31.5 201.92-31.13 202.24-30.75 202.24-29.95L202.24-29.95 202.24-4.5 201.74-4.5 201.74-29.95Q201.74-30.35 201.57-30.68 201.39-31 200.89-31L200.89-31 200.14-31Q199.79-31 199.54-30.9 199.29-30.8 198.99-30.3L198.99-30.3 192.89-21.1Q191.99-19.75 191.52-19.25 191.04-18.75 189.94-18.75L189.94-18.75Q188.84-18.75 188.37-19.25 187.89-19.75 186.99-21.1L186.99-21.1 180.89-30.3Q180.59-30.8 180.32-30.9 180.04-31 179.69-31L179.69-31 178.94-31Q178.44-31 178.29-30.68 178.14-30.35 178.14-29.95L178.14-29.95 178.14-4.5 177.64-4.5 177.64-29.95Q177.64-30.75 177.97-31.13 178.29-31.5 178.94-31.5L178.94-31.5 179.79-31.5Q180.19-31.5 180.59-31.33 180.99-31.15 181.29-30.65L181.29-30.65 187.39-21.35Q188.24-20.05 188.64-19.65 189.04-19.25 189.94-19.25ZM174.14 0L181.59 0Q182.54 0 182.97-0.43 183.39-0.85 183.39-1.8L183.39-1.8 183.39-19.4 186.34-13.95Q186.79-13.1 187.42-12.73 188.04-12.35 188.99-12.35L188.99-12.35 190.99-12.35Q191.94-12.35 192.57-12.73 193.19-13.1 193.64-13.95L193.64-13.95 196.59-19.4 196.59-1.8Q196.59-0.85 197.02-0.43 197.44 0 198.39 0L198.39 0 206.09 0Q207.04 0 207.47-0.43 207.89-0.85 207.89-1.8L207.89-1.8 207.89-34.2Q207.89-35.15 207.47-35.58 207.04-36 206.09-36L206.09-36 197.99-36Q197.19-36 196.67-35.65 196.14-35.3 195.69-34.5L195.69-34.5 191.24-26.35Q190.99-25.9 190.82-25.7 190.64-25.5 190.34-25.5L190.34-25.5 189.89-25.5Q189.59-25.5 189.42-25.7 189.24-25.9 188.99-26.35L188.99-26.35 184.49-34.5Q184.04-35.3 183.52-35.65 182.99-36 182.19-36L182.19-36 174.14-36Q173.19-36 172.77-35.58 172.34-35.15 172.34-34.2L172.34-34.2 172.34-1.8Q172.34-0.85 172.77-0.43 173.19 0 174.14 0L174.14 0ZM183.19 0.05L183.19 0.05 176.69 5.45Q176.49 5.65 176.07 5.8 175.64 5.95 175.14 5.95L175.14 5.95 167.69 5.95Q166.49 5.95 165.94 5.4 165.39 4.85 165.39 3.65L165.39 3.65 165.39-28.75Q165.39-29.4 165.57-29.85 165.74-30.3 166.09-30.6L166.09-30.6 172.54-36.05Q172.79-36.25 173.22-36.38 173.64-36.5 174.14-36.5L174.14-36.5 182.19-36.5Q183.14-36.5 183.77-36.1 184.39-35.7 184.94-34.75L184.94-34.75 188.34-28.5 188.79-29.3Q188.99-29.65 189.22-29.98 189.44-30.3 189.69-30.5L189.69-30.5 196.14-35.9Q196.54-36.2 196.97-36.35 197.39-36.5 197.99-36.5L197.99-36.5 206.09-36.5Q207.29-36.5 207.84-35.95 208.39-35.4 208.39-34.2L208.39-34.2 208.39-1.8Q208.39-1.15 208.22-0.7 208.04-0.25 207.69 0.05L207.69 0.05 201.19 5.45Q200.99 5.65 200.57 5.8 200.14 5.95 199.64 5.95L199.64 5.95 191.94 5.95Q190.69 5.95 190.17 5.4 189.64 4.85 189.64 3.65L189.64 3.65 189.64-9.55 186.69-7.1Q186.29-6.75 185.77-6.58 185.24-6.4 184.54-6.4L184.54-6.4 183.89-6.4 183.89-1.8Q183.89-1.15 183.72-0.7 183.54-0.25 183.19 0.05Z" opacity="1" transform="matrix(1,0,0,1,0,0)" fill="#ffffff" class="wordmark-text-0" data-fill-palette-color="primary" id="text-0"></path></svg></g></svg></g></svg></g></svg></g></svg></g><defs></defs></svg><rect width="395.52" height="84.32260004850836" fill="none" stroke="none" visibility="hidden"></rect></g></svg></g></svg>