<svg xmlns="http://www.w3.org/2000/svg" version="1.1" xmlns:xlink="http://www.w3.org/1999/xlink" xmlns:svgjs="http://svgjs.dev/svgjs" width="2000" height="617" viewBox="0 0 2000 617"><g transform="matrix(1,0,0,1,0.3398876404492057,-0.720273247496948)"><svg viewBox="0 0 356 110" data-background-color="#ffffff" preserveAspectRatio="xMidYMid meet" height="617" width="2000" xmlns="http://www.w3.org/2000/svg" xmlns:xlink="http://www.w3.org/1999/xlink"><g id="tight-bounds" transform="matrix(1,0,0,1,-0.06049999999996203,0.1284117621145242)"><svg viewBox="0 0 356.12052 109.74317647577092" height="109.74317647577092" width="356.12052"><g><svg viewBox="0 0 356.12052 109.74317647577092" height="109.74317647577092" width="356.12052"><g><svg viewBox="0 0 356.12052 109.74317647577092" height="109.74317647577092" width="356.12052"><g><path d="M0 109.743v-109.743h356.121v109.743z" fill="#f3ecda" stroke="transparent" stroke-width="0" rx="0%" data-fill-palette-color="tertiary"></path><path d="M3.283 106.46v-103.177h349.554v103.177z" fill="#3e4f3c" stroke="transparent" stroke-width="0" rx="0%" data-fill-palette-color="quaternary"></path><path d="M9.85 99.893v-90.043h336.421v90.043z" fill="#f3ecda" stroke="transparent" stroke-width="0" data-fill-palette-color="tertiary"></path></g><g transform="matrix(1,0,0,1,19.69974,19.69974)" id="textblocktransform"><svg viewBox="0 0 316.72104 70.34369647577093" height="70.34369647577093" width="316.72104" id="textblock"><g><svg viewBox="0 0 316.72104 70.34369647577093" height="70.34369647577093" width="316.72104"><g transform="matrix(1,0,0,1,0,0)"><svg width="316.72104" viewBox="4.75 -29.6 136.19 30.25" height="70.34369647577093" data-palette-color="#3e4f3c"><path d="M8.55 0L8.55 0 4.75 0 4.75-29 8.55-29Q15.95-29 20.35-25.1 24.75-21.2 24.75-14.5 24.75-7.8 20.35-3.9 15.95 0 8.55 0ZM6.25-1.5L8.55-1.5Q15.3-1.5 19.28-4.95 23.25-8.4 23.25-14.5 23.25-20.6 19.28-24.05 15.3-27.5 8.55-27.5L8.55-27.5 6.25-27.5 6.25-1.5ZM35.05 0L35.05-1.5 51.35-1.5 41.1-25.65 30.2 0 28.6 0 41.1-29.5 53.6 0 35.05 0ZM66.95-29.6L66.95-29.6Q73.15-29.6 75.75-26.85L75.75-26.85 74.75-25.75Q72.34-28.1 67.15-28.1L67.15-28.1Q59.34-28.1 59.34-21.9L59.34-21.9Q59.34-19.5 61.25-18.07 63.15-16.65 65.87-15.9 68.59-15.15 71.32-14.33 74.05-13.5 75.95-11.68 77.84-9.85 77.84-6.9L77.84-6.9Q77.84-3.45 75-1.4 72.15 0.65 66.75 0.65L66.75 0.65Q64.09 0.65 61.52-0.05 58.95-0.75 57.7-2.1L57.7-2.1 58.7-3.2Q61.25-0.85 66.55-0.85L66.55-0.85Q71.4-0.85 73.87-2.65 76.34-4.45 76.34-6.85L76.34-6.85Q76.34-9.35 74.45-10.9 72.55-12.45 69.82-13.23 67.09-14 64.37-14.83 61.65-15.65 59.75-17.4 57.84-19.15 57.84-22L57.84-22Q57.84-25.85 60.42-27.73 63-29.6 66.95-29.6ZM99.74-27.48Q98.04-28 95.54-28 93.04-28 91.34-27.48 89.64-26.95 88.22-25.53 86.79-24.1 86.09-21.38 85.39-18.65 85.39-14.5 85.39-10.35 86.09-7.63 86.79-4.9 88.22-3.48 89.64-2.05 91.34-1.53 93.04-1 95.54-1 98.04-1 99.74-1.53 101.44-2.05 102.87-3.48 104.29-4.9 104.99-7.63 105.69-10.35 105.69-14.5 105.69-18.65 104.99-21.38 104.29-24.1 102.87-25.53 101.44-26.95 99.74-27.48ZM104.49-3.05Q101.79 0.5 95.54 0.5 89.29 0.5 86.59-3.05 83.89-6.6 83.89-14.5 83.89-22.4 86.59-25.95 89.29-29.5 95.54-29.5 101.79-29.5 104.49-25.95 107.19-22.4 107.19-14.5 107.19-6.6 104.49-3.05ZM120.14-0.05L120.14-1.5 139.44-1.5 139.44-26.9 128.19-15.65 116.94-26.9 116.94 0 115.44-0.05 115.44-29 116.94-29 128.19-17.75 139.44-29 140.94-29 140.94 0 120.14-0.05Z" opacity="1" transform="matrix(1,0,0,1,0,0)" fill="#3e4f3c" class="wordmark-text-0" data-fill-palette-color="quaternary" id="text-0"></path></svg></g></svg></g></svg></g></svg></g></svg></g><defs></defs></svg><rect width="356.12052" height="109.74317647577092" fill="none" stroke="none" visibility="hidden"></rect></g></svg></g></svg>